# xmcd
#
# Track frame offsets: 
#        150
#        13118
#        31664
#        44048
#        62795
#        80985
#        91803
#        108058
#        119953
#        136619
#        150663
#        164738
#
# Disc length: 2432 seconds
#
# Revision: 5
# Processed by: cddbd v1.5.2PL0 Copyright (c) Steve Scherf et al.
# Submitted via: ExactAudioCopyFreeDBPlugin 1.0
#
DISCID=9f097e0c
DTITLE=Johnny Cash - Greatest Hits  [CD 1] The Man in Black
DYEAR=1993
DGENRE=Country
TTITLE0=Man In Black, The
TTITLE1=Ballad Of Ira Hayes, The
TTITLE2=Folsom Prison Blues
TTITLE3=Sunday Morning Coming Down
TTITLE4=One Piece At A Time
TTITLE5=Daddy Sang Bass
TTITLE6=Baron, The
TTITLE7=What Is Truth
TTITLE8=Boy Named Sue, A
TTITLE9=Orange Blossom Special
TTITLE10=Ragged Old Flag
TTITLE11=Were You There
EXTD=YEAR: 1993 ID3G: 2
EXTT0=
EXTT1=
EXTT2=
EXTT3=
EXTT4=
EXTT5=
EXTT6=
EXTT7=
EXTT8=
EXTT9=
EXTT10=
EXTT11=
PLAYORDER=
